<svg xmlns="http://www.w3.org/2000/svg" width="1011" height="638" viewBox="0 0 1011 638"><defs><linearGradient id="g" x2="1" y2="1"><stop stop-color="#f8fcff"/><stop offset=".55" stop-color="#e7f4fb"/><stop offset="1" stop-color="#c7e8f7"/></linearGradient><linearGradient id="band" x2="1"><stop stop-color="#073b66"/><stop offset="1" stop-color="#0879b9"/></linearGradient></defs>
<rect width="1011" height="638" rx="28" fill="url(#g)"/><rect x="8" y="8" width="995" height="622" rx="25" fill="none" stroke="#0b5f96" stroke-width="3"/><path d="M0 500 Q240 390 505 510 T1011 445 V638 H0Z" fill="#19a5d8" opacity=".18"/><path d="M0 545 Q280 445 540 548 T1011 500" fill="none" stroke="#f4b51e" stroke-width="5" opacity=".65"/>
<image href="/static/img/fobak_logo_official_v25.png" x="55" y="35" width="390" height="105" preserveAspectRatio="xMinYMid meet"/>
<image href="/static/img/fobak_logo_official_v25.png" x="235" y="180" width="530" height="300" opacity=".07" preserveAspectRatio="xMidYMid meet"/>
<image href="/static/img/drapeau_rdc.jpg" x="745" y="35" width="92" height="58" preserveAspectRatio="xMidYMid meet"/>
<text x="850" y="57" font-family="Arial" font-weight="700" font-size="14" fill="#0b5594">RÉPUBLIQUE</text><text x="850" y="77" font-family="Arial" font-weight="700" font-size="14" fill="#0b5594">DÉMOCRATIQUE DU CONGO</text>
<rect x="35" y="150" width="600" height="65" rx="8" fill="url(#band)"/><text x="78" y="195" font-family="Arial" font-weight="700" font-size="35" fill="white">CARTE DE MEMBRE</text><text x="75" y="270" font-family="Arial" font-weight="700" font-size="23" fill="#0b5594">N° CARTE :</text><text x="300" y="270" font-family="Arial" font-weight="700" font-size="23">ASBL-FOBAK-NAT-00001-NAT</text>
<text x="75" y="323" font-family="Arial" font-weight="700" font-size="23" fill="#0b5594">DATE D’ÉMISSION :</text><text x="345" y="323" font-family="Arial" font-size="23">2026-07-30</text>
<text x="75" y="376" font-family="Arial" font-weight="700" font-size="23" fill="#0b5594">DATE D’EXPIRATION :</text><text x="365" y="376" font-family="Arial" font-size="23">2027-07-30</text>
<text x="75" y="429" font-family="Arial" font-weight="700" font-size="22" fill="#0b5594">STATUT :</text><text x="225" y="429" font-family="Arial" font-weight="700" font-size="22" fill="#c9252d">ACTIVE</text>
<rect x="70" y="455" width="515" height="95" rx="15" fill="white" fill-opacity=".78" stroke="#0872bb" stroke-width="2"/><text x="100" y="490" font-family="Arial" font-size="17" fill="#163c61">Cette carte est personnelle et incessible.</text><text x="100" y="520" font-family="Arial" font-size="17" fill="#163c61">Elle atteste de la qualité de membre FOBAK ASBL.</text>
<rect x="705" y="160" width="230" height="245" rx="18" fill="white" fill-opacity=".82" stroke="#0872bb" stroke-width="3"/><text x="775" y="195" font-family="Arial" font-weight="700" font-size="18" fill="#0872bb">QR CODE</text>
<rect x="35" y="570" width="941" height="50" rx="18" fill="#075a9e"/><text x="65" y="600" font-family="Arial" font-size="15" fill="white">96, Av. Yauma, Quartier SAIO, Commune de Kasa-Vubu, Kinshasa - RDC | +243 81 45 70 392 ; +243 81 44 00 233</text></svg>